<?xml version="1.0" standalone="no"?>
<!DOCTYPE svg PUBLIC "-//W3C//DTD SVG 20010904//EN"
 "http://www.w3.org/TR/2001/REC-SVG-20010904/DTD/svg10.dtd">
<svg version="1.0" xmlns="http://www.w3.org/2000/svg"
 width="700.000000pt" height="700.000000pt" viewBox="0 0 700.000000 700.000000"
 preserveAspectRatio="xMidYMid meet">
<metadata>
Created by potrace 1.14, written by Peter Selinger 2001-2017
</metadata>
<g transform="translate(0.000000,700.000000) scale(0.100000,-0.100000)"
fill="#000000" stroke="none">
<path d="M1180 6994 c-312 -46 -530 -143 -746 -332 -227 -198 -389 -513 -425
-826 -7 -61 -9 -839 -7 -2396 4 -2559 -2 -2330 68 -2542 150 -452 537 -784
1015 -874 96 -18 192 -19 2415 -19 2553 0 2375 -4 2580 61 403 127 727 451
854 854 65 205 61 27 61 2580 0 2223 -1 2319 -19 2415 -52 278 -182 521 -380
713 -183 177 -380 282 -656 348 -71 17 -196 18 -2405 20 -1282 1 -2341 0
-2355 -2z m2681 -1314 c847 -86 1465 -648 1594 -1450 8 -52 15 -98 15 -103 0
-4 -207 -6 -461 -5 l-461 3 -24 85 c-95 330 -346 580 -670 667 -89 24 -117 26
-274 27 -195 0 -283 -15 -426 -75 -318 -132 -559 -459 -648 -879 l-22 -105
-473 -3 -473 -2 7 57 c12 101 45 258 76 368 233 814 869 1331 1739 1414 126
12 384 12 501 1z m-1381 -2482 c24 -180 83 -375 153 -515 78 -153 217 -319
343 -409 264 -189 657 -234 986 -114 193 71 368 225 475 420 32 58 86 196 103
268 l11 42 460 0 461 0 -7 -52 c-4 -29 -18 -104 -32 -167 -114 -520 -428 -924
-898 -1156 -365 -181 -787 -241 -1265 -179 -604 78 -1087 369 -1400 844 -185
281 -304 647 -337 1034 l-6 76 470 0 470 0 13 -92z"/>
</g>
</svg>
